<svg width="380" height="373" viewBox="0 0 380 373" fill="none" xmlns="http://www.w3.org/2000/svg">
<path d="M380 250.97H234.221V166.611H380V250.97ZM235.111 250.081H379.111V167.5H235.111V250.081Z" fill="#E0E0E0"/>
<path d="M349.926 211.592H253.746V214.412H349.926V211.592Z" fill="#F0F0F0"/>
<path d="M356.553 222.106H253.746V225.184H356.553V222.106Z" fill="#F0F0F0"/>
<path d="M356.553 232.745H253.746V235.822H356.553V232.745Z" fill="#F0F0F0"/>
<path d="M287.359 196.32H253.746V203.64H287.359V196.32Z" fill="#F0F0F0"/>
<path d="M379.555 167.055H234.692V180.487H379.555V167.055Z" fill="#E0E0E0"/>
<path d="M368.41 178.477C368.223 178.299 370.091 176.048 372.573 173.451C375.054 170.854 377.234 168.888 377.412 169.057C377.589 169.226 375.73 171.485 373.249 174.092C370.767 176.698 368.588 178.655 368.41 178.477Z" fill="white"/>
<path d="M377.429 178.477C377.251 178.654 375.081 176.698 372.59 174.091C370.1 171.485 368.241 169.235 368.427 169.057C368.614 168.879 370.776 170.836 373.266 173.451C375.757 176.066 377.598 178.299 377.429 178.477Z" fill="white"/>
<path d="M200.616 0H55.7534V83.4789H200.616V0Z" fill="#E6E6E6"/>
<path d="M170.996 44.5458H74.8149V47.3655H170.996V44.5458Z" fill="#F0F0F0"/>
<path d="M177.622 55.0596H74.8149V58.1372H177.622V55.0596Z" fill="#F0F0F0"/>
<path d="M177.622 65.698H74.8149V68.7756H177.622V65.698Z" fill="#F0F0F0"/>
<path d="M108.429 29.2732H74.8149V36.5937H108.429V29.2732Z" fill="#F0F0F0"/>
<path d="M200.616 0H55.7534V13.4313H200.616V0Z" fill="#E0E0E0"/>
<path d="M188.982 11.3588C188.795 11.1898 190.663 8.93046 193.144 6.33314C195.626 3.73583 197.805 1.77005 197.983 1.94795C198.161 2.12585 196.302 4.37626 193.82 6.97358C191.339 9.57089 189.16 11.5189 188.982 11.3588Z" fill="white"/>
<path d="M197.983 11.3588C197.805 11.5367 195.635 9.57984 193.145 6.97363C190.654 4.36741 188.795 2.12589 188.982 1.948C189.168 1.7701 191.33 3.72698 193.821 6.33319C196.311 8.9394 198.17 11.1898 197.983 11.3588Z" fill="white"/>
<path d="M145.752 155.074H0V70.7057H145.752V155.074ZM0.889492 154.185H144.863V71.5952H0.889492V154.185Z" fill="#E0E0E0"/>
<path d="M115.688 115.696H19.5068V118.516H115.688V115.696Z" fill="#F0F0F0"/>
<path d="M122.314 126.21H19.5068V129.288H122.314V126.21Z" fill="#F0F0F0"/>
<path d="M122.314 136.848H19.5068V139.926H122.314V136.848Z" fill="#F0F0F0"/>
<path d="M53.1207 100.424H19.5068V107.744H53.1207V100.424Z" fill="#F0F0F0"/>
<path d="M145.308 71.1505H0.444824V84.5818H145.308V71.1505Z" fill="#E0E0E0"/>
<path d="M313.964 174.403H142.915V327.538H313.964V174.403Z" fill="#E6E6E6"/>
<path d="M151.516 126.166H17.5229V265.38H151.516V126.166Z" fill="#F0F0F0"/>
<path d="M151.516 126.166H17.5229V141.331H151.516V126.166Z" fill="#E0E0E0"/>
<path d="M28.5881 133.593C28.5637 134.143 28.3783 134.674 28.055 135.119C27.7317 135.565 27.2847 135.905 26.7694 136.099C26.2542 136.293 25.6933 136.331 25.1565 136.209C24.6198 136.087 24.1306 135.81 23.7499 135.412C23.3692 135.015 23.1136 134.514 23.0148 133.973C22.9161 133.431 22.9785 132.872 23.1945 132.366C23.4104 131.86 23.7702 131.428 24.2294 131.124C24.6885 130.82 25.2268 130.658 25.7773 130.658C26.5385 130.676 27.2615 130.995 27.7881 131.545C28.3148 132.095 28.6024 132.832 28.5881 133.593Z" fill="white"/>
<path d="M40.0003 133.593C39.9776 134.145 39.7929 134.679 39.4693 135.127C39.1456 135.576 38.6972 135.919 38.1798 136.115C37.6625 136.31 37.0991 136.349 36.5598 136.227C36.0204 136.105 35.5289 135.827 35.1464 135.427C34.7639 135.028 34.5073 134.525 34.4086 133.981C34.3098 133.436 34.3733 132.875 34.591 132.367C34.8088 131.859 35.1712 131.425 35.6332 131.122C36.0953 130.818 36.6365 130.656 37.1895 130.657C37.9508 130.676 38.6737 130.995 39.2004 131.545C39.727 132.095 40.0146 132.831 40.0003 133.593Z" fill="white"/>
<path d="M51.4124 133.593C51.3897 134.145 51.2051 134.679 50.8814 135.127C50.5577 135.576 50.1093 135.919 49.592 136.115C49.0746 136.31 48.5112 136.349 47.9719 136.227C47.4325 136.105 46.941 135.827 46.5585 135.427C46.176 135.028 45.9195 134.525 45.8207 133.981C45.722 133.436 45.7854 132.875 46.0032 132.367C46.2209 131.859 46.5833 131.425 47.0454 131.122C47.5074 130.818 48.0486 130.656 48.6016 130.657C49.3629 130.676 50.0858 130.995 50.6125 131.545C51.1392 132.095 51.4267 132.831 51.4124 133.593Z" fill="white"/>
<path d="M360.867 30.4473H189.818V200.927H360.867V30.4473Z" fill="#F0F0F0"/>
<path d="M360.867 30.4473H189.818V50.4164H360.867V30.4473Z" fill="#E0E0E0"/>
<path d="M204.388 40.2317C204.356 40.9577 204.112 41.6585 203.686 42.247C203.26 42.8356 202.67 43.286 201.99 43.5423C201.31 43.7987 200.57 43.8497 199.862 43.689C199.153 43.5283 198.507 43.163 198.004 42.6384C197.501 42.1139 197.164 41.4532 197.033 40.7384C196.902 40.0236 196.985 39.2861 197.27 38.6176C197.554 37.9492 198.029 37.3791 198.635 36.9781C199.241 36.5772 199.952 36.3631 200.678 36.3624C201.683 36.3858 202.637 36.806 203.332 37.5312C204.027 38.2563 204.407 39.2274 204.388 40.2317Z" fill="white"/>
<path d="M218.326 37.6166C218.819 38.1522 219.144 38.8209 219.259 39.5396C219.375 40.2584 219.277 40.9952 218.977 41.6585C218.677 42.3217 218.188 42.8819 217.572 43.2694C216.955 43.6568 216.239 43.8544 215.511 43.8374C214.783 43.8204 214.076 43.5897 213.479 43.1739C212.881 42.7581 212.419 42.1757 212.15 41.4992C211.882 40.8227 211.818 40.082 211.967 39.3695C212.116 38.657 212.471 38.004 212.989 37.4921C213.714 36.8023 214.683 36.428 215.683 36.4513C216.684 36.4747 217.634 36.8937 218.326 37.6166Z" fill="white"/>
<path d="M234.434 40.2317C234.403 40.9577 234.159 41.6585 233.733 42.247C233.307 42.8356 232.717 43.286 232.037 43.5423C231.357 43.7987 230.617 43.8497 229.908 43.689C229.2 43.5283 228.554 43.163 228.051 42.6384C227.548 42.1139 227.211 41.4532 227.08 40.7384C226.949 40.0236 227.032 39.2861 227.316 38.6176C227.601 37.9492 228.076 37.3791 228.682 36.9781C229.288 36.5772 229.999 36.3631 230.725 36.3624C231.73 36.3858 232.684 36.806 233.379 37.5312C234.074 38.2563 234.454 39.2274 234.434 40.2317Z" fill="white"/>
<path d="M323.918 372.768C323.918 372.893 262.151 373 185.984 373C109.817 373 48.0239 372.893 48.0239 372.768C48.0239 372.644 109.781 372.537 185.984 372.537C262.187 372.537 323.918 372.653 323.918 372.768Z" fill="#263238"/>
<path d="M263.734 263.877C249.992 254.279 246.879 236.463 247.421 220.443C247.51 217.775 247.217 214.946 248.488 212.607C249.76 210.267 252.731 208.657 255.124 209.778C257.108 210.712 257.97 213.025 259.082 214.937C260.566 217.484 262.74 219.56 265.353 220.923C267.052 221.813 269.16 222.347 270.841 221.421C273.154 220.149 273.421 216.974 273.403 214.306C273.403 209.342 273.374 204.385 273.314 199.433C273.154 196.774 273.425 194.107 274.115 191.535C274.942 189.008 276.783 186.669 279.301 185.957C281.818 185.246 284.958 186.713 285.527 189.311C285.625 190.411 285.652 191.516 285.607 192.62C285.678 193.732 286.194 194.95 287.235 195.288C288.276 195.626 289.361 194.852 290.161 194.07C292.901 191.401 294.769 187.923 296.503 184.49C298.238 181.056 299.937 177.525 302.427 174.599C304.918 171.672 308.36 169.351 312.212 169.128C316.063 168.906 320.075 171.272 321.036 175.008C321.996 178.744 319.817 182.56 317.478 185.593C313.947 190.095 309.786 194.065 305.123 197.378C304.212 197.876 303.486 198.652 303.05 199.593C302.472 201.372 304.153 203.151 305.905 203.712C307.889 204.37 310.041 204.165 312.132 204.414C314.222 204.663 316.446 205.571 317.237 207.528C318.323 210.249 316.045 213.096 313.813 214.964C309.33 218.7 304.239 221.639 298.763 223.654C296.806 224.366 294.751 224.997 293.168 226.367C291.584 227.737 290.642 230.13 291.593 232.006C292.545 233.883 294.991 234.479 297.046 234.097C299.101 233.714 300.924 232.611 302.881 231.873C306.537 230.494 311.251 230.743 313.555 233.901C314.269 234.989 314.72 236.227 314.875 237.519C315.029 238.811 314.882 240.121 314.444 241.346C313.554 243.784 312.184 246.02 310.415 247.919C304.589 254.88 297.02 260.169 288.48 263.245C280.003 266.181 272.149 266.981 263.726 263.895" fill="#FF5555"/>
<path d="M317.122 171.325C317.122 171.325 317.042 171.414 316.864 171.574L316.072 172.277C315.378 172.9 314.356 173.807 313.066 175.008C309.409 178.403 306.013 182.069 302.908 185.975C300.924 188.439 298.869 191.232 296.681 194.265C294.493 197.298 292.234 200.572 289.992 204.05C287.603 207.717 285.414 211.512 283.437 215.417C282.405 217.454 281.498 219.58 280.564 221.75L277.806 228.377C274.172 236.724 271.006 245.268 268.324 253.968C266.164 261.086 264.675 268.391 263.877 275.787C263.36 280.778 263.276 285.805 263.628 290.811C263.77 292.59 263.904 293.951 264.028 294.876C264.081 295.32 264.117 295.676 264.153 295.934V296.299C264.114 296.183 264.087 296.064 264.073 295.943C264.028 295.685 263.975 295.338 263.904 294.893C263.743 294.004 263.574 292.599 263.414 290.82C262.985 285.805 263.015 280.761 263.503 275.752C264.252 268.324 265.709 260.985 267.853 253.834C270.512 245.11 273.669 236.545 277.308 228.182L280.137 221.581C281.071 219.42 281.987 217.276 283.028 215.231C285.019 211.313 287.225 207.509 289.637 203.836C291.914 200.278 294.209 197.058 296.37 194.052C298.531 191.045 300.622 188.234 302.596 185.779C305.734 181.884 309.175 178.243 312.888 174.892C314.204 173.709 315.254 172.82 315.965 172.224L316.793 171.556C316.894 171.468 317.004 171.391 317.122 171.325Z" fill="#263238"/>
<path d="M283.143 215.213C283.018 214.846 282.931 214.468 282.885 214.083C282.743 213.345 282.583 212.304 282.396 210.952C282.014 208.284 281.622 204.628 281.204 200.581C280.786 196.533 280.315 192.869 279.923 190.227C279.719 188.911 279.541 187.852 279.416 187.114C279.319 186.736 279.268 186.348 279.265 185.957C279.418 186.314 279.529 186.687 279.594 187.069C279.79 187.799 280.012 188.848 280.261 190.174C280.768 192.842 281.266 196.471 281.685 200.527C282.103 204.583 282.458 208.141 282.734 210.908C282.868 212.153 282.983 213.211 283.072 214.056C283.141 214.438 283.165 214.826 283.143 215.213Z" fill="#263238"/>
<path d="M317.371 208.826C316.938 208.92 316.497 208.974 316.054 208.986C315.165 209.066 313.902 209.173 312.336 209.351C309.205 209.689 304.9 210.312 300.177 211.201C295.454 212.091 291.211 213.096 288.16 213.87C286.639 214.261 285.411 214.617 284.602 214.857C284.17 215.011 283.722 215.118 283.268 215.177C283.679 214.97 284.107 214.801 284.548 214.67C285.385 214.377 286.594 213.967 288.106 213.532C291.14 212.642 295.382 211.584 300.123 210.676C304.14 209.908 308.192 209.344 312.265 208.986C313.839 208.853 315.111 208.8 316.001 208.782C316.458 208.751 316.917 208.766 317.371 208.826Z" fill="#263238"/>
<path d="M268.288 253.212C268.193 253.083 268.116 252.943 268.057 252.794L267.47 251.557C266.963 250.481 266.278 248.889 265.46 246.941C263.805 243.027 261.697 237.548 259.456 231.464C257.214 225.38 255.151 219.9 253.585 215.942C252.82 214.021 252.189 212.446 251.717 211.272L251.219 210C251.15 209.854 251.102 209.698 251.077 209.538C251.171 209.667 251.249 209.807 251.308 209.956L251.895 211.192C252.393 212.269 253.087 213.861 253.905 215.809C255.56 219.723 257.668 225.202 259.909 231.286C262.151 237.37 264.214 242.849 265.78 246.808C266.545 248.729 267.176 250.303 267.639 251.477C267.844 251.984 268.013 252.367 268.146 252.749C268.215 252.896 268.263 253.052 268.288 253.212Z" fill="#263238"/>
<path d="M313.724 238.562C313.582 238.644 313.429 238.707 313.27 238.749L311.954 239.194L307.088 240.768C302.979 242.102 297.304 244.006 291.078 246.105C284.851 248.204 279.149 250.072 275.013 251.317C272.95 251.949 271.268 252.429 270.103 252.749L268.76 253.096C268.604 253.146 268.443 253.179 268.28 253.194C268.422 253.112 268.575 253.05 268.733 253.007L270.05 252.563L274.915 250.988C279.025 249.654 284.7 247.75 290.926 245.651C297.153 243.552 302.845 241.684 306.982 240.439C309.054 239.807 310.726 239.327 311.901 239.007L313.244 238.66C313.4 238.61 313.561 238.577 313.724 238.562Z" fill="#263238"/>
<path d="M295.187 22.7978L290.606 24.4345L288.64 18.4482C285.029 7.40958 273.519 1.54782 262.943 5.27479C252.367 9.00177 246.736 21.1078 250.347 32.1464L252.313 38.1326L247.714 39.7782C245.961 40.4584 244.537 41.7881 243.738 43.4911C242.94 45.194 242.828 47.1392 243.427 48.9222L256.174 87.873C256.438 88.7557 256.877 89.5762 257.465 90.2857C258.053 90.9953 258.778 91.5794 259.596 92.0034C260.414 92.4274 261.309 92.6826 262.228 92.7539C263.147 92.8252 264.07 92.7111 264.944 92.4184L312.416 75.4379C314.193 74.759 315.637 73.4174 316.445 71.6955C317.253 69.9735 317.361 68.0054 316.748 66.205L303.993 27.2542C303.721 26.374 303.275 25.5575 302.681 24.8534C302.087 24.1493 301.358 23.5721 300.536 23.1562C299.714 22.7403 298.817 22.4942 297.898 22.4326C296.979 22.3711 296.057 22.4952 295.187 22.7978ZM259.002 29.0242C258.028 26.154 258.203 23.0184 259.49 20.2742C260.777 17.53 263.075 15.3902 265.905 14.3031C267.302 13.8252 268.781 13.6335 270.253 13.7395C271.726 13.8456 273.162 14.2473 274.476 14.9205C275.791 15.5938 276.956 16.5248 277.902 17.6581C278.849 18.7915 279.557 20.1038 279.985 21.5169L281.942 27.5032L260.959 35.0105L259.002 29.0242ZM285.687 63.5899L288.942 73.5344C289.002 73.7338 288.983 73.9486 288.889 74.1341C288.794 74.3196 288.632 74.4617 288.435 74.5307L283.872 76.1584C283.691 76.2088 283.497 76.1869 283.331 76.0974C283.165 76.0078 283.04 75.8576 282.983 75.6781L279.701 65.7781C277.891 65.6795 276.154 65.0303 274.724 63.9175C273.293 62.8048 272.236 61.2815 271.695 59.5516C270.922 57.2647 271.063 54.7671 272.089 52.5819C273.115 50.3966 274.947 48.6931 277.201 47.8281C278.314 47.4479 279.492 47.2956 280.665 47.3803C281.838 47.465 282.982 47.785 284.029 48.3212C285.075 48.8574 286.003 49.5989 286.757 50.5014C287.511 51.4038 288.076 52.4489 288.418 53.5742C288.99 55.3315 289.037 57.2175 288.554 59.0012C288.07 60.7849 287.077 62.3889 285.696 63.6166L285.687 63.5899Z" fill="#FF5555"/>
<path d="M290.401 24.3277C290.401 24.4523 281.907 27.6456 271.339 31.4437C260.772 35.2418 252.153 38.2928 252.109 38.2038C252.064 38.1149 260.603 34.8949 271.179 31.0879C281.755 27.2809 290.357 24.2121 290.401 24.3277Z" fill="#263238"/>
<path d="M300.488 25.9644C300.527 26.0415 300.56 26.1219 300.586 26.2045C300.657 26.3824 300.737 26.6137 300.844 26.8983C301.075 27.5477 301.395 28.446 301.795 29.5668L305.211 39.5113C306.634 43.7275 308.333 48.7265 310.219 54.2769C311.108 57.061 312.158 59.9607 313.136 63.0117C313.66 64.5839 313.886 66.2399 313.804 67.895C313.728 68.7558 313.483 69.5931 313.083 70.3589C312.656 71.1221 312.085 71.7957 311.402 72.3425C310.028 73.3456 308.502 74.1233 306.883 74.6463L302.302 76.2918L293.63 79.3962L278.944 84.6264L269.026 88.1132L266.358 89.0027L265.646 89.2339C265.57 89.2678 265.489 89.2888 265.406 89.2962C265.406 89.2962 265.477 89.2962 265.629 89.1895L266.322 88.9137L268.991 87.9086L278.855 84.2795L293.514 78.9425L302.169 75.8115L306.75 74.157C308.323 73.6553 309.804 72.9013 311.135 71.9244C311.77 71.417 312.302 70.7918 312.701 70.0832C313.077 69.3749 313.304 68.5968 313.368 67.7972C313.45 66.2025 313.232 64.6066 312.727 63.0918C311.767 60.0675 310.753 57.1411 309.836 54.357C307.986 48.7976 306.278 43.7809 304.926 39.5647C303.574 35.3485 302.436 31.9595 301.653 29.5757C301.28 28.4105 300.995 27.5032 300.764 26.845L300.55 26.1334C300.523 26.0795 300.502 26.0228 300.488 25.9644Z" fill="#263238"/>
<path d="M275.44 13.6982C275.44 13.6982 274.968 13.467 274.097 13.1112C272.854 12.6338 271.54 12.3691 270.21 12.3284C268.238 12.2608 266.275 12.6314 264.464 13.4136C262.261 14.3876 260.377 15.9629 259.029 17.9589C257.672 19.9492 256.943 22.3012 256.938 24.7101C256.957 26.6846 257.256 28.6463 257.828 30.5363C258.29 32.1552 258.771 33.445 259.091 34.3433C259.28 34.7997 259.435 35.2694 259.554 35.7487C259.301 35.3221 259.089 34.8724 258.922 34.4056C258.557 33.5161 258.033 32.253 257.517 30.6253C256.883 28.7154 256.539 26.7218 256.494 24.7101C256.47 22.2102 257.215 19.7633 258.628 17.701C260.024 15.6321 261.984 14.008 264.277 13.0222C266.145 12.2358 268.169 11.8888 270.192 12.0082C271.551 12.0775 272.887 12.394 274.132 12.9422C274.465 13.0958 274.787 13.2742 275.093 13.4759C275.22 13.5315 275.337 13.6065 275.44 13.6982Z" fill="#263238"/>
<path d="M275.849 48.5041C275.991 48.4181 276.14 48.3437 276.294 48.2817C276.739 48.0808 277.2 47.9172 277.672 47.7925C278.422 47.5712 279.196 47.4399 279.976 47.4011C281.038 47.3441 282.101 47.5045 283.098 47.8726C285.375 48.6731 287.466 50.9947 288.498 54.099C288.992 55.765 288.992 57.5388 288.498 59.2047C287.949 61.0128 286.965 62.659 285.633 63.9991L285.687 63.7589C286.87 67.0056 288.16 70.528 289.494 74.2016L289.574 74.4239L289.351 74.504L287.315 75.18L282.867 76.6655L282.645 76.7366L282.574 76.5142C281.355 72.8317 280.021 69.3983 279.016 66.0271L279.211 66.1783C277.472 66.0339 275.814 65.3812 274.444 64.3015C273.203 63.3463 272.187 62.1321 271.464 60.7435C270.812 59.5121 270.487 58.1338 270.521 56.7408C270.562 55.3171 270.918 53.9202 271.562 52.65C272.206 51.3798 273.123 50.2678 274.248 49.3936C274.711 49.0179 275.23 48.7177 275.787 48.5041C275.284 48.8022 274.797 49.1258 274.328 49.4737C273.093 50.5187 272.146 51.8632 271.579 53.3785C271.093 54.5212 270.865 55.7575 270.913 56.9985C270.961 58.2396 271.282 59.4548 271.855 60.5567C272.566 61.8926 273.558 63.058 274.764 63.9724C276.071 64.9987 277.652 65.6174 279.309 65.7514H279.46L279.505 65.8848C280.483 69.1937 281.826 72.6538 283.063 76.3541L282.769 76.2118L287.217 74.7264L289.245 74.0415L289.102 74.3439C287.777 70.6703 286.496 67.139 285.322 63.8923V63.7589L285.429 63.6522C286.722 62.3676 287.686 60.7901 288.24 59.0535C288.711 57.4599 288.711 55.7638 288.24 54.1702C287.27 51.1815 285.269 48.9133 283.098 48.1127C282.138 47.7423 281.112 47.5698 280.083 47.6057C279.315 47.6233 278.551 47.7278 277.806 47.9171C276.481 48.2462 275.858 48.5486 275.849 48.5041Z" fill="#263238"/>
<path d="M248.355 305.336L159.504 304.927C154.373 304.899 149.463 302.835 145.852 299.189C142.241 295.544 140.225 290.614 140.246 285.483L141.189 62.7449C141.2 60.2028 141.711 57.6877 142.694 55.3433C143.677 52.9989 145.113 50.8713 146.918 49.082C148.724 47.2927 150.865 45.8769 153.218 44.9154C155.572 43.9539 158.091 43.4656 160.633 43.4785L249.476 43.8877C254.607 43.9136 259.518 45.9749 263.13 49.619C266.743 53.2631 268.761 58.192 268.742 63.3231L267.799 286.052C267.789 288.595 267.278 291.111 266.295 293.456C265.312 295.802 263.877 297.93 262.071 299.721C260.266 301.512 258.125 302.929 255.772 303.893C253.418 304.856 250.898 305.347 248.355 305.336Z" fill="#455A64"/>
<path d="M249.342 51.5462H232.122C231.56 51.5566 231.006 51.6776 230.49 51.9023C229.975 52.127 229.51 52.451 229.12 52.8557C228.73 53.2605 228.424 53.7381 228.218 54.2612C228.013 54.7844 227.913 55.3428 227.923 55.9047V59.0268C227.934 59.5883 227.834 60.1463 227.628 60.6689C227.423 61.1916 227.117 61.6686 226.727 62.0726C226.337 62.4767 225.871 62.7998 225.356 63.0235C224.841 63.2473 224.286 63.3672 223.725 63.3764L190.156 63.2252C189.02 63.1949 187.943 62.7152 187.161 61.8913C186.378 61.0674 185.955 59.9668 185.984 58.8311V55.709C186.013 54.5748 185.591 53.4755 184.81 52.6519C184.03 51.8283 182.955 51.3475 181.821 51.3149H175.764L160.687 51.2438C157.101 51.2224 153.652 52.6229 151.096 55.1386C148.541 57.6543 147.086 61.0802 147.051 64.6662L146.161 282.076C146.153 283.855 146.495 285.618 147.169 287.265C147.842 288.912 148.833 290.41 150.085 291.673C151.337 292.937 152.826 293.942 154.466 294.63C156.107 295.318 157.867 295.677 159.646 295.685L248.311 296.094C250.091 296.102 251.855 295.76 253.503 295.086C255.151 294.413 256.65 293.421 257.914 292.168C259.179 290.915 260.184 289.425 260.873 287.784C261.562 286.142 261.921 284.381 261.929 282.601L262.818 65.191C262.84 61.5949 261.432 58.1375 258.905 55.5789C256.378 53.0202 252.938 51.5697 249.342 51.5462Z" fill="white"/>
<path d="M237.415 267.088L171.485 266.803C170.801 266.803 170.249 266.056 170.258 265.149L170.329 247.902C170.329 247.012 170.889 246.247 171.574 246.247L237.504 246.55C237.883 246.615 238.223 246.825 238.451 247.135C238.68 247.445 238.78 247.831 238.731 248.213L238.669 265.442C238.669 266.359 238.099 267.097 237.415 267.088Z" fill="#FF5555"/>
<path d="M191.878 259.42C191.455 259.42 191.049 259.353 190.658 259.217C190.274 259.082 189.975 258.903 189.764 258.68L190 258.217C190.206 258.423 190.48 258.591 190.821 258.721C191.163 258.846 191.515 258.908 191.878 258.908C192.388 258.908 192.77 258.816 193.025 258.632C193.279 258.442 193.407 258.198 193.407 257.9C193.407 257.672 193.336 257.491 193.195 257.355C193.06 257.22 192.892 257.117 192.691 257.046C192.491 256.97 192.212 256.889 191.854 256.802C191.425 256.694 191.084 256.591 190.829 256.493C190.574 256.39 190.355 256.236 190.171 256.03C189.992 255.824 189.902 255.544 189.902 255.192C189.902 254.905 189.978 254.645 190.13 254.411C190.282 254.173 190.515 253.983 190.829 253.842C191.144 253.701 191.534 253.631 192 253.631C192.325 253.631 192.642 253.677 192.951 253.769C193.266 253.856 193.537 253.978 193.765 254.135L193.561 254.615C193.323 254.458 193.068 254.341 192.797 254.265C192.526 254.184 192.26 254.143 192 254.143C191.501 254.143 191.125 254.241 190.87 254.436C190.621 254.626 190.496 254.872 190.496 255.176C190.496 255.404 190.564 255.588 190.699 255.729C190.84 255.864 191.014 255.97 191.22 256.046C191.431 256.116 191.713 256.195 192.065 256.282C192.483 256.385 192.819 256.488 193.073 256.591C193.334 256.688 193.553 256.84 193.732 257.046C193.911 257.247 194 257.52 194 257.867C194 258.155 193.922 258.418 193.765 258.656C193.613 258.889 193.377 259.076 193.057 259.217C192.737 259.353 192.344 259.42 191.878 259.42ZM195.311 253.68H195.913V259.372H195.311V253.68ZM202.522 253.68V259.372H202.026L198.367 254.753V259.372H197.765V253.68H198.261L201.928 258.298V253.68H202.522ZM208.388 256.526H208.966V258.697C208.7 258.93 208.386 259.109 208.023 259.233C207.659 259.358 207.277 259.42 206.876 259.42C206.307 259.42 205.795 259.296 205.339 259.046C204.884 258.797 204.526 258.453 204.266 258.014C204.006 257.569 203.876 257.073 203.876 256.526C203.876 255.978 204.006 255.485 204.266 255.046C204.526 254.601 204.884 254.254 205.339 254.005C205.795 253.756 206.31 253.631 206.884 253.631C207.318 253.631 207.716 253.701 208.079 253.842C208.443 253.978 208.749 254.181 208.998 254.452L208.624 254.834C208.174 254.39 207.602 254.168 206.909 254.168C206.448 254.168 206.03 254.271 205.656 254.477C205.288 254.677 204.998 254.959 204.786 255.322C204.575 255.68 204.469 256.081 204.469 256.526C204.469 256.97 204.575 257.371 204.786 257.729C204.998 258.087 205.288 258.369 205.656 258.575C206.025 258.781 206.44 258.884 206.9 258.884C207.486 258.884 207.982 258.737 208.388 258.445V256.526ZM192.602 269.42C191.865 269.42 191.29 269.209 190.878 268.786C190.466 268.363 190.26 267.748 190.26 266.94V263.68H190.862V266.916C190.862 267.577 191.011 268.071 191.309 268.396C191.607 268.721 192.038 268.884 192.602 268.884C193.171 268.884 193.605 268.721 193.903 268.396C194.201 268.071 194.35 267.577 194.35 266.916V263.68H194.936V266.94C194.936 267.748 194.73 268.363 194.318 268.786C193.911 269.209 193.339 269.42 192.602 269.42ZM198.879 263.68C199.606 263.68 200.175 263.853 200.587 264.2C200.999 264.547 201.205 265.024 201.205 265.631C201.205 266.238 200.999 266.715 200.587 267.062C200.175 267.404 199.606 267.575 198.879 267.575H197.35V269.372H196.749V263.68H198.879ZM198.863 267.046C199.427 267.046 199.858 266.924 200.156 266.68C200.454 266.431 200.603 266.081 200.603 265.631C200.603 265.17 200.454 264.818 200.156 264.574C199.858 264.325 199.427 264.2 198.863 264.2H197.35V267.046H198.863Z" fill="#E8E8E3"/>
<path d="M184.635 115.456L161.758 115.353L161.739 119.551L184.616 119.655L184.635 115.456Z" fill="#FF5555"/>
<path opacity="0.1" d="M184.635 115.456L161.758 115.353L161.739 119.551L184.616 119.655L184.635 115.456Z" fill="black"/>
<path d="M251.699 141.234C251.879 141.216 252.056 141.174 252.224 141.109C252.47 141.013 252.684 140.849 252.842 140.637C252.999 140.424 253.093 140.172 253.114 139.908C253.114 138.494 253.114 136.431 253.114 133.78C253.114 132.454 253.114 130.969 253.114 129.332C253.114 128.932 253.114 128.514 253.114 128.096C253.172 127.69 253.083 127.277 252.865 126.931C252.742 126.765 252.583 126.629 252.399 126.535C252.216 126.441 252.013 126.391 251.806 126.388H250.419H237.565L163.168 126.112C162.978 126.109 162.789 126.152 162.619 126.237C162.449 126.322 162.302 126.447 162.19 126.602C161.975 126.95 161.893 127.363 161.959 127.767C161.959 128.656 161.959 129.546 161.959 130.435C161.959 132.214 161.959 133.993 161.959 135.772C161.959 136.662 161.959 137.551 161.959 138.441C161.922 138.855 161.922 139.272 161.959 139.686C162.005 139.864 162.092 140.028 162.212 140.167C162.333 140.306 162.483 140.415 162.652 140.487C162.828 140.556 163.015 140.59 163.204 140.584H167.731L187.487 140.691L220.932 140.896L243.481 141.074L249.609 141.145H251.201C251.566 141.145 251.744 141.145 251.744 141.145H251.201H249.609H243.481H220.932L187.487 141.038L167.731 140.958H163.204C162.955 140.968 162.706 140.926 162.474 140.834C162.24 140.734 162.032 140.581 161.866 140.389C161.699 140.196 161.579 139.968 161.514 139.722C161.462 139.488 161.444 139.249 161.46 139.01V138.352C161.46 137.462 161.46 136.573 161.46 135.683C161.46 133.904 161.46 132.125 161.46 130.346C161.46 129.457 161.46 128.567 161.46 127.678C161.444 127.441 161.444 127.203 161.46 126.966C161.494 126.705 161.595 126.456 161.754 126.246C161.907 126.031 162.111 125.857 162.346 125.737C162.581 125.618 162.842 125.558 163.106 125.561L237.503 125.97L250.356 126.059H251.744C251.988 126.059 252.229 126.118 252.446 126.231C252.663 126.344 252.849 126.508 252.989 126.708C253.24 127.095 253.341 127.56 253.274 128.016C253.274 128.434 253.274 128.852 253.274 129.252C253.274 130.871 253.274 132.357 253.274 133.7C253.274 136.368 253.212 138.414 253.194 139.837C253.172 140.111 253.073 140.373 252.907 140.592C252.742 140.811 252.517 140.978 252.26 141.074C252.092 141.178 251.897 141.233 251.699 141.234Z" fill="#E0E0E0"/>
<path d="M210.472 130.578H168.63V134.5H210.472V130.578Z" fill="#FF5555"/>
<path opacity="0.2" d="M210.472 130.578H168.63V134.5H210.472V130.578Z" fill="white"/>
<path d="M184.48 153.757L161.602 153.653L161.583 157.851L184.461 157.955L184.48 153.757Z" fill="#FF5555"/>
<path opacity="0.1" d="M184.48 153.757L161.602 153.653L161.583 157.851L184.461 157.955L184.48 153.757Z" fill="black"/>
<path d="M251.122 179.535C251.301 179.513 251.479 179.48 251.655 179.437C251.904 179.358 252.132 179.227 252.326 179.052C252.519 178.877 252.673 178.663 252.776 178.423C252.916 178.064 252.971 177.678 252.936 177.294C252.936 176.867 252.936 176.404 252.936 175.888C252.936 174.856 252.936 173.682 252.936 172.33V166.682C252.979 166.273 252.888 165.861 252.678 165.508C252.459 165.145 252.114 164.876 251.709 164.752C251.266 164.673 250.814 164.649 250.366 164.681H237.566L163.427 164.405C163.028 164.406 162.643 164.552 162.344 164.815C162.044 165.078 161.851 165.442 161.799 165.837C161.799 166.682 161.799 167.616 161.799 168.506C161.799 170.284 161.799 172.063 161.799 173.842C161.799 174.732 161.799 175.621 161.799 176.511C161.766 176.927 161.784 177.345 161.852 177.756C161.963 178.117 162.192 178.43 162.502 178.646C162.83 178.854 163.216 178.954 163.604 178.93H164.841H167.412L187.096 179.028L220.425 179.233L242.894 179.411L249.005 179.482H250.597H251.131H250.597H249.005H242.894H220.425L187.078 179.446L167.394 179.375H163.524C163.043 179.404 162.566 179.276 162.164 179.01C161.759 178.73 161.463 178.318 161.327 177.845C161.248 177.393 161.224 176.933 161.256 176.475C161.256 175.586 161.256 174.696 161.256 173.807C161.256 172.028 161.256 170.249 161.256 168.47C161.256 167.58 161.256 166.691 161.256 165.801C161.321 165.293 161.569 164.825 161.954 164.486C162.339 164.147 162.834 163.96 163.347 163.96L237.486 164.369L250.285 164.467C250.762 164.438 251.241 164.471 251.709 164.565C252.171 164.716 252.561 165.033 252.803 165.455C253.033 165.846 253.133 166.301 253.087 166.753C253.087 167.171 253.087 167.58 253.087 167.99C253.087 169.6 253.087 171.076 253.087 172.437C253.087 173.798 253.087 174.945 253.087 175.995C253.087 176.502 253.087 176.973 253.087 177.409C253.12 177.807 253.056 178.207 252.901 178.575C252.785 178.82 252.618 179.038 252.411 179.213C252.204 179.388 251.961 179.516 251.7 179.589C251.505 179.605 251.31 179.587 251.122 179.535Z" fill="#E0E0E0"/>
<path d="M184.307 193.721L161.43 193.617L161.411 197.815L184.288 197.919L184.307 193.721Z" fill="#FF5555"/>
<path opacity="0.1" d="M184.307 193.721L161.43 193.617L161.411 197.815L184.288 197.919L184.307 193.721Z" fill="black"/>
<path d="M250.943 219.482C251.123 219.461 251.302 219.428 251.477 219.385C251.724 219.306 251.952 219.176 252.146 219.002C252.339 218.829 252.493 218.617 252.598 218.379C252.737 218.02 252.792 217.634 252.758 217.25C252.758 216.814 252.758 216.36 252.758 215.835C252.758 214.813 252.758 213.63 252.758 212.277V206.629C252.8 206.22 252.71 205.809 252.5 205.455C252.275 205.099 251.932 204.834 251.531 204.708C251.088 204.626 250.637 204.599 250.187 204.628H237.388L163.248 204.352C162.85 204.353 162.465 204.499 162.165 204.762C161.866 205.026 161.672 205.389 161.621 205.784C161.621 206.674 161.621 207.563 161.621 208.453C161.621 210.232 161.621 212.011 161.621 213.79C161.621 214.679 161.621 215.569 161.621 216.458C161.587 216.871 161.605 217.286 161.674 217.694C161.781 218.057 162.01 218.372 162.323 218.584C162.65 218.797 163.037 218.897 163.426 218.869H167.296L186.98 218.975L220.309 219.18L242.778 219.358L248.889 219.429H250.481C250.837 219.429 251.015 219.429 251.015 219.429C251.015 219.429 250.837 219.429 250.481 219.429H248.889H242.778H220.309L186.98 219.331L167.296 219.251H163.426C162.945 219.284 162.466 219.155 162.065 218.886C161.661 218.606 161.365 218.194 161.229 217.721C161.15 217.269 161.126 216.809 161.158 216.351C161.158 215.462 161.158 214.572 161.158 213.683C161.158 211.904 161.158 210.125 161.158 208.346C161.158 207.456 161.158 206.567 161.158 205.633C161.221 205.125 161.467 204.658 161.85 204.319C162.234 203.98 162.728 203.792 163.239 203.792L237.379 204.201L250.178 204.299C250.655 204.27 251.134 204.302 251.602 204.397C252.064 204.548 252.454 204.864 252.696 205.286C252.926 205.678 253.026 206.133 252.98 206.585C252.98 207.003 252.98 207.421 252.98 207.821C252.98 209.431 252.98 210.908 252.98 212.269C252.98 213.63 252.98 214.777 252.98 215.827C252.98 216.334 252.98 216.805 252.98 217.241C253.015 217.639 252.95 218.039 252.794 218.406C252.678 218.651 252.511 218.869 252.304 219.044C252.097 219.219 251.854 219.347 251.593 219.42C251.384 219.491 251.162 219.513 250.943 219.482Z" fill="#E0E0E0"/>
<path d="M209.579 169.988L167.737 169.798L167.72 173.721L209.561 173.911L209.579 169.988Z" fill="#FF5555"/>
<path opacity="0.2" d="M209.579 169.988L167.737 169.798L167.72 173.721L209.561 173.911L209.579 169.988Z" fill="white"/>
<path d="M171.521 212.224C171.494 212.582 171.364 212.924 171.145 213.208C170.926 213.493 170.628 213.706 170.289 213.823C169.95 213.94 169.584 213.954 169.236 213.865C168.889 213.775 168.575 213.586 168.335 213.32C168.094 213.054 167.937 212.723 167.882 212.368C167.828 212.014 167.878 211.651 168.028 211.325C168.178 210.999 168.42 210.724 168.725 210.534C169.029 210.345 169.383 210.249 169.742 210.258C170.237 210.286 170.702 210.508 171.035 210.876C171.368 211.244 171.542 211.728 171.521 212.224Z" fill="#FF5555"/>
<path d="M177.187 212.251C177.204 212.501 177.17 212.753 177.086 212.99C177.002 213.227 176.87 213.444 176.699 213.628C176.527 213.812 176.32 213.958 176.089 214.059C175.859 214.159 175.61 214.211 175.359 214.211C175.107 214.211 174.859 214.159 174.628 214.059C174.398 213.958 174.19 213.812 174.019 213.628C173.847 213.444 173.715 213.227 173.632 212.99C173.548 212.753 173.513 212.501 173.531 212.251C173.513 212 173.548 211.748 173.632 211.511C173.715 211.274 173.847 211.057 174.019 210.873C174.19 210.69 174.398 210.543 174.628 210.443C174.859 210.343 175.107 210.291 175.359 210.291C175.61 210.291 175.859 210.343 176.089 210.443C176.32 210.543 176.527 210.69 176.699 210.873C176.87 211.057 177.002 211.274 177.086 211.511C177.17 211.748 177.204 212 177.187 212.251Z" fill="#FF5555"/>
<path d="M182.862 212.277C182.836 212.635 182.705 212.977 182.486 213.262C182.267 213.546 181.97 213.76 181.63 213.876C181.291 213.993 180.925 214.007 180.578 213.918C180.23 213.828 179.917 213.639 179.676 213.373C179.435 213.107 179.278 212.776 179.223 212.421C179.169 212.067 179.22 211.704 179.37 211.378C179.519 211.052 179.762 210.777 180.066 210.588C180.371 210.398 180.724 210.302 181.083 210.312C181.578 210.342 182.041 210.564 182.374 210.932C182.706 211.299 182.881 211.782 182.862 212.277Z" fill="#FF5555"/>
<path d="M188.528 212.304C188.502 212.662 188.371 213.004 188.152 213.288C187.933 213.573 187.636 213.786 187.296 213.903C186.957 214.019 186.591 214.034 186.244 213.945C185.896 213.855 185.583 213.666 185.342 213.4C185.101 213.134 184.944 212.803 184.889 212.448C184.835 212.094 184.886 211.731 185.036 211.405C185.185 211.079 185.428 210.804 185.732 210.614C186.037 210.425 186.39 210.329 186.749 210.338C187.244 210.368 187.707 210.591 188.04 210.958C188.372 211.326 188.547 211.809 188.528 212.304Z" fill="#FF5555"/>
<path d="M194.194 212.322C194.17 212.68 194.04 213.024 193.822 213.309C193.604 213.594 193.307 213.809 192.968 213.927C192.629 214.045 192.262 214.061 191.914 213.973C191.566 213.884 191.252 213.695 191.01 213.429C190.769 213.164 190.61 212.833 190.555 212.478C190.5 212.123 190.551 211.76 190.7 211.433C190.85 211.107 191.092 210.831 191.397 210.641C191.702 210.452 192.056 210.355 192.415 210.365C192.908 210.395 193.37 210.616 193.703 210.982C194.035 211.347 194.211 211.828 194.194 212.322Z" fill="#FF5555"/>
<path d="M199.869 212.349C199.845 212.705 199.717 213.047 199.501 213.331C199.285 213.616 198.991 213.831 198.654 213.951C198.317 214.07 197.953 214.089 197.606 214.004C197.259 213.919 196.944 213.735 196.7 213.473C196.457 213.212 196.295 212.885 196.235 212.533C196.174 212.181 196.219 211.819 196.362 211.491C196.505 211.164 196.74 210.885 197.039 210.69C197.338 210.495 197.688 210.391 198.046 210.392C198.547 210.41 199.02 210.627 199.362 210.994C199.703 211.36 199.886 211.848 199.869 212.349Z" fill="#FF5555"/>
<path d="M205.535 212.375C205.553 212.626 205.518 212.878 205.434 213.115C205.351 213.352 205.219 213.569 205.047 213.753C204.876 213.937 204.668 214.083 204.438 214.183C204.207 214.284 203.959 214.335 203.707 214.335C203.456 214.335 203.207 214.284 202.977 214.183C202.746 214.083 202.539 213.937 202.367 213.753C202.196 213.569 202.064 213.352 201.98 213.115C201.896 212.878 201.862 212.626 201.879 212.375C201.862 212.125 201.896 211.873 201.98 211.636C202.064 211.399 202.196 211.182 202.367 210.998C202.539 210.814 202.746 210.668 202.977 210.567C203.207 210.467 203.456 210.415 203.707 210.415C203.959 210.415 204.207 210.467 204.438 210.567C204.668 210.668 204.876 210.814 205.047 210.998C205.219 211.182 205.351 211.399 205.434 211.636C205.518 211.873 205.553 212.125 205.535 212.375Z" fill="#FF5555"/>
<path d="M211.201 212.402C211.177 212.759 211.049 213.1 210.833 213.385C210.617 213.67 210.322 213.885 209.986 214.004C209.649 214.124 209.285 214.142 208.938 214.057C208.591 213.973 208.276 213.788 208.032 213.527C207.789 213.265 207.627 212.938 207.567 212.586C207.507 212.234 207.551 211.872 207.694 211.544C207.837 211.217 208.072 210.938 208.371 210.743C208.67 210.548 209.02 210.444 209.378 210.445C209.879 210.464 210.352 210.68 210.694 211.047C211.035 211.414 211.218 211.901 211.201 212.402Z" fill="#FF5555"/>
<path d="M216.867 212.429C216.842 212.787 216.713 213.13 216.495 213.416C216.277 213.701 215.98 213.916 215.641 214.034C215.302 214.152 214.935 214.168 214.587 214.079C214.239 213.991 213.925 213.802 213.683 213.536C213.441 213.27 213.283 212.939 213.228 212.585C213.173 212.23 213.224 211.866 213.373 211.54C213.523 211.213 213.765 210.938 214.07 210.748C214.375 210.558 214.729 210.462 215.088 210.472C215.581 210.502 216.043 210.723 216.375 211.089C216.708 211.454 216.884 211.935 216.867 212.429Z" fill="#FF5555"/>
<g opacity="0.2">
<path opacity="0.2" d="M171.521 212.224C171.494 212.582 171.364 212.924 171.145 213.208C170.926 213.493 170.628 213.706 170.289 213.823C169.95 213.94 169.584 213.954 169.236 213.865C168.889 213.775 168.575 213.586 168.335 213.32C168.094 213.054 167.937 212.723 167.882 212.368C167.828 212.014 167.878 211.651 168.028 211.325C168.178 210.999 168.42 210.724 168.725 210.534C169.029 210.345 169.383 210.249 169.742 210.258C170.237 210.286 170.702 210.508 171.035 210.876C171.368 211.244 171.542 211.728 171.521 212.224Z" fill="white"/>
<path opacity="0.2" d="M177.187 212.251C177.204 212.501 177.17 212.753 177.086 212.99C177.002 213.227 176.87 213.444 176.699 213.628C176.527 213.812 176.32 213.958 176.089 214.059C175.859 214.159 175.61 214.211 175.359 214.211C175.107 214.211 174.859 214.159 174.628 214.059C174.398 213.958 174.19 213.812 174.019 213.628C173.847 213.444 173.715 213.227 173.632 212.99C173.548 212.753 173.513 212.501 173.531 212.251C173.513 212 173.548 211.748 173.632 211.511C173.715 211.274 173.847 211.057 174.019 210.873C174.19 210.69 174.398 210.543 174.628 210.443C174.859 210.343 175.107 210.291 175.359 210.291C175.61 210.291 175.859 210.343 176.089 210.443C176.32 210.543 176.527 210.69 176.699 210.873C176.87 211.057 177.002 211.274 177.086 211.511C177.17 211.748 177.204 212 177.187 212.251Z" fill="white"/>
<path opacity="0.2" d="M182.861 212.277C182.835 212.635 182.704 212.977 182.486 213.262C182.267 213.546 181.969 213.76 181.63 213.876C181.291 213.993 180.924 214.007 180.577 213.918C180.23 213.828 179.916 213.639 179.675 213.373C179.435 213.107 179.277 212.776 179.223 212.421C179.168 212.067 179.219 211.704 179.369 211.378C179.519 211.052 179.761 210.777 180.066 210.588C180.37 210.398 180.724 210.302 181.082 210.312C181.577 210.342 182.041 210.564 182.373 210.932C182.706 211.299 182.881 211.782 182.861 212.277Z" fill="white"/>
<path opacity="0.2" d="M188.528 212.304C188.502 212.662 188.371 213.004 188.152 213.288C187.933 213.573 187.636 213.786 187.296 213.903C186.957 214.02 186.591 214.034 186.244 213.945C185.896 213.855 185.583 213.666 185.342 213.4C185.101 213.134 184.944 212.803 184.889 212.448C184.835 212.094 184.886 211.731 185.036 211.405C185.185 211.079 185.428 210.804 185.732 210.615C186.037 210.425 186.39 210.329 186.749 210.338C187.244 210.368 187.707 210.591 188.04 210.958C188.372 211.326 188.547 211.809 188.528 212.304Z" fill="white"/>
<path opacity="0.2" d="M194.194 212.322C194.169 212.68 194.04 213.024 193.822 213.309C193.604 213.594 193.307 213.809 192.967 213.927C192.628 214.045 192.262 214.061 191.914 213.973C191.566 213.884 191.251 213.695 191.01 213.429C190.768 213.164 190.61 212.833 190.555 212.478C190.5 212.123 190.55 211.76 190.7 211.433C190.85 211.107 191.092 210.831 191.397 210.641C191.702 210.452 192.056 210.355 192.415 210.365C192.908 210.395 193.37 210.616 193.702 210.982C194.034 211.347 194.211 211.828 194.194 212.322Z" fill="white"/>
<path opacity="0.2" d="M199.869 212.349C199.844 212.705 199.716 213.047 199.5 213.331C199.284 213.616 198.99 213.831 198.653 213.951C198.317 214.071 197.952 214.089 197.605 214.004C197.258 213.919 196.943 213.735 196.7 213.473C196.456 213.212 196.294 212.885 196.234 212.533C196.174 212.181 196.218 211.819 196.361 211.491C196.504 211.164 196.74 210.885 197.039 210.69C197.338 210.495 197.688 210.391 198.045 210.392C198.546 210.41 199.019 210.627 199.361 210.994C199.703 211.36 199.885 211.848 199.869 212.349Z" fill="white"/>
<path opacity="0.2" d="M205.535 212.375C205.552 212.626 205.518 212.878 205.434 213.115C205.35 213.352 205.218 213.569 205.047 213.753C204.875 213.937 204.668 214.083 204.437 214.183C204.207 214.284 203.958 214.335 203.707 214.335C203.455 214.335 203.207 214.284 202.976 214.183C202.746 214.083 202.538 213.937 202.367 213.753C202.195 213.569 202.064 213.352 201.98 213.115C201.896 212.878 201.861 212.626 201.879 212.375C201.861 212.125 201.896 211.873 201.98 211.636C202.064 211.399 202.195 211.182 202.367 210.998C202.538 210.814 202.746 210.668 202.976 210.567C203.207 210.467 203.455 210.415 203.707 210.415C203.958 210.415 204.207 210.467 204.437 210.567C204.668 210.668 204.875 210.814 205.047 210.998C205.218 211.182 205.35 211.399 205.434 211.636C205.518 211.873 205.552 212.125 205.535 212.375Z" fill="white"/>
<path opacity="0.2" d="M211.201 212.402C211.177 212.759 211.049 213.1 210.833 213.385C210.617 213.67 210.322 213.885 209.986 214.004C209.649 214.124 209.285 214.142 208.938 214.057C208.591 213.973 208.276 213.788 208.032 213.527C207.789 213.265 207.627 212.938 207.567 212.586C207.507 212.234 207.551 211.872 207.694 211.544C207.837 211.217 208.072 210.938 208.371 210.743C208.67 210.548 209.02 210.444 209.378 210.445C209.879 210.464 210.352 210.68 210.694 211.047C211.035 211.414 211.218 211.901 211.201 212.402Z" fill="white"/>
<path opacity="0.2" d="M216.867 212.429C216.842 212.787 216.713 213.13 216.495 213.416C216.277 213.701 215.98 213.916 215.641 214.034C215.302 214.152 214.935 214.168 214.587 214.079C214.239 213.991 213.925 213.802 213.683 213.536C213.441 213.27 213.283 212.939 213.228 212.585C213.173 212.23 213.224 211.866 213.373 211.54C213.523 211.213 213.765 210.938 214.07 210.748C214.375 210.558 214.729 210.462 215.088 210.472C215.581 210.502 216.043 210.723 216.375 211.089C216.708 211.454 216.884 211.935 216.867 212.429Z" fill="white"/>
</g>
<path d="M208.817 84.0216C209.435 83.7495 209.959 83.3017 210.325 82.7339C210.69 82.1661 210.88 81.5034 210.872 80.8283C210.895 80.3894 210.828 79.9505 210.676 79.5381C210.524 79.1258 210.29 78.7488 209.987 78.43C209.685 78.1112 209.32 77.8573 208.917 77.6839C208.513 77.5104 208.078 77.4209 207.638 77.4209C207.199 77.4209 206.764 77.5104 206.36 77.6839C205.957 77.8573 205.592 78.1112 205.29 78.43C204.987 78.7488 204.753 79.1258 204.601 79.5381C204.449 79.9505 204.382 80.3894 204.405 80.8283C204.392 81.5102 204.58 82.1808 204.948 82.7554C205.315 83.3301 205.844 83.7831 206.469 84.0572C201.488 84.8043 201.71 90.2124 201.71 90.2124L213.487 90.2658C213.487 90.2658 213.763 84.7599 208.817 84.0216Z" fill="#FF5555"/>
<path opacity="0.1" d="M208.817 84.0216C209.435 83.7495 209.959 83.3017 210.325 82.7339C210.69 82.1661 210.88 81.5034 210.872 80.8283C210.895 80.3894 210.828 79.9505 210.676 79.5381C210.524 79.1258 210.29 78.7488 209.987 78.43C209.685 78.1112 209.32 77.8573 208.917 77.6839C208.513 77.5104 208.078 77.4209 207.638 77.4209C207.199 77.4209 206.764 77.5104 206.36 77.6839C205.957 77.8573 205.592 78.1112 205.29 78.43C204.987 78.7488 204.753 79.1258 204.601 79.5381C204.449 79.9505 204.382 80.3894 204.405 80.8283C204.392 81.5102 204.58 82.1808 204.948 82.7554C205.315 83.3301 205.844 83.7831 206.469 84.0572C201.488 84.8043 201.71 90.2124 201.71 90.2124L213.487 90.2658C213.487 90.2658 213.763 84.7599 208.817 84.0216Z" fill="black"/>
<path d="M227.954 93.754L185.979 93.5635L185.957 98.5802L227.931 98.7706L227.954 93.754Z" fill="#FF5555"/>
<path opacity="0.2" d="M227.954 93.754L185.979 93.5635L185.957 98.5802L227.931 98.7706L227.954 93.754Z" fill="white"/>
<path d="M73.6411 119.753H73.223L72.0133 119.841C71.3586 119.881 70.7076 119.967 70.0653 120.099C69.6493 120.158 69.2366 120.238 68.8289 120.34L67.4502 120.722C65.1036 121.442 62.8895 122.539 60.8947 123.969C58.259 125.882 56.0582 128.331 54.4369 131.156C53.4841 132.784 52.7257 134.519 52.1776 136.324C51.6017 138.286 51.2701 140.311 51.1903 142.354C51.1373 143.428 51.1551 144.503 51.2437 145.574C51.2437 146.117 51.3949 146.66 51.466 147.211C51.5259 147.767 51.63 148.317 51.7774 148.857C52.5772 152.426 54.2001 155.759 56.5167 158.59C58.8332 161.421 61.7792 163.671 65.1197 165.161C67.5375 166.204 70.1289 166.787 72.7605 166.878C75.4785 167.027 78.1993 166.637 80.7659 165.73L81.5487 165.437H81.6554L81.7443 165.49L92.9608 171.183L92.6317 171.468C91.4309 167.75 90.2746 164.147 89.1538 160.687V160.554L89.2517 160.456C91.9726 157.715 93.9925 154.359 95.1401 150.671C96.1795 147.3 96.4828 143.745 96.0296 140.246C95.6264 137.137 94.6267 134.135 93.0854 131.405C91.7567 129.06 90.0427 126.955 88.0153 125.178C86.3425 123.772 84.4912 122.594 82.5093 121.674C81.0097 121.027 79.448 120.535 77.8484 120.206L76.0694 119.913L74.7796 119.815L73.9969 119.761H73.73C73.8187 119.752 73.9082 119.752 73.9969 119.761H74.7885L76.0783 119.815L77.8573 120.073C79.4768 120.378 81.0598 120.852 82.5805 121.487C84.5964 122.396 86.4811 123.572 88.1843 124.983C90.249 126.751 91.9994 128.856 93.3611 131.209C94.9462 133.969 95.9766 137.011 96.3943 140.166C96.8851 143.719 96.603 147.336 95.567 150.769C94.412 154.533 92.3608 157.961 89.5897 160.758L89.643 160.527C90.7638 163.987 91.929 167.589 93.1387 171.299L93.3077 171.841L92.8007 171.583L81.5842 165.899H81.7799L80.9794 166.193C78.3633 167.113 75.5922 167.512 72.8227 167.367C70.1344 167.265 67.4888 166.661 65.0219 165.588C60.3162 163.573 56.4011 160.07 53.8766 155.617C52.7148 153.56 51.8664 151.342 51.3593 149.035C51.2204 148.481 51.1165 147.92 51.048 147.353C50.9768 146.793 50.8612 146.242 50.8345 145.69C50.5938 142.525 50.9283 139.343 51.8218 136.297C52.3836 134.467 53.163 132.711 54.1434 131.067C55.8033 128.217 58.05 125.752 60.7345 123.835C62.7623 122.401 65.0135 121.313 67.3968 120.615L68.7933 120.26C69.2044 120.164 69.62 120.09 70.0386 120.037C70.6876 119.917 71.3447 119.846 72.0044 119.824L73.223 119.779C73.3616 119.761 73.5013 119.752 73.6411 119.753Z" fill="#FF5555"/>
<path d="M78.7112 140.495H77.0656L73.5077 135.497V132.214C73.5077 132.214 70.9637 132.054 71.2661 136.35C71.5686 140.647 71.2661 139.553 71.2661 139.553C71.2661 139.553 65.8669 139.553 65.4222 140.042C64.9774 140.531 64.9507 145.743 64.8885 148.652C64.8544 149.353 65.0556 150.046 65.4601 150.619C65.8646 151.193 66.4492 151.615 67.1211 151.819C67.3094 151.871 67.5039 151.898 67.6993 151.899C69.0513 151.899 75.9271 150.805 75.9271 150.805H78.7646L78.7112 140.495Z" fill="#FF5555"/>
<path d="M83.4166 139.615L82.4026 150.858H79.5918V139.846L83.4166 139.615Z" fill="#FF5555"/>
<path d="M116.941 368.508V360.903L103.306 360.805L103.19 372.306L104.035 372.368C107.798 372.608 123.177 372.964 125.703 372.181C128.514 371.31 116.941 368.508 116.941 368.508Z" fill="#FF5555"/>
<path d="M126.024 371.47C126.024 371.594 120.918 371.701 114.629 371.701C108.341 371.701 103.235 371.594 103.235 371.47C103.235 371.345 108.341 371.239 114.629 371.239C120.918 371.239 126.024 371.345 126.024 371.47Z" fill="#263238"/>
<path d="M117.182 370.064C117.066 370.002 117.182 369.602 117.457 369.175C117.733 368.748 118.107 368.57 118.196 368.659C118.285 368.748 118.098 369.086 117.831 369.451C117.564 369.815 117.297 370.127 117.182 370.064Z" fill="#263238"/>
<path d="M118.053 370.563C117.929 370.563 117.991 370.064 118.258 369.593C118.525 369.122 118.881 368.837 118.978 368.908C119.076 368.979 118.916 369.38 118.667 369.798C118.418 370.216 118.169 370.607 118.053 370.563Z" fill="#263238"/>
<path d="M107.344 371.434C107.291 371.434 107.086 371.274 106.793 370.936C106.434 370.502 106.035 370.102 105.601 369.744C105.173 369.403 104.664 369.179 104.124 369.095C103.706 369.041 103.439 369.095 103.413 369.041C103.386 368.988 103.644 368.801 104.133 368.766C104.779 368.752 105.408 368.966 105.912 369.371C106.384 369.755 106.782 370.222 107.086 370.749C107.291 371.141 107.397 371.399 107.344 371.434Z" fill="#263238"/>
<path d="M117.226 368.632C117.289 368.739 117.057 369.006 116.666 369.148C116.275 369.291 115.928 369.237 115.91 369.148C115.892 369.059 116.168 368.873 116.506 368.748C116.844 368.624 117.155 368.526 117.226 368.632Z" fill="#263238"/>
<path d="M117.013 367.894C117.013 368.028 116.657 368.134 116.194 368.143C115.732 368.152 115.367 368.045 115.376 367.921C115.385 367.796 115.75 367.681 116.194 367.672C116.639 367.663 116.995 367.77 117.013 367.894Z" fill="#263238"/>
<path d="M150.52 368.508V360.903L136.884 360.805L136.769 372.19L137.614 372.253C141.376 372.493 156.764 372.964 159.282 372.181C162.092 371.31 150.52 368.508 150.52 368.508Z" fill="#FF5555"/>
<path d="M159.602 371.488C159.602 371.612 154.505 371.719 148.207 371.719C141.91 371.719 136.822 371.612 136.822 371.488C136.822 371.363 141.919 371.256 148.207 371.256C154.496 371.256 159.602 371.363 159.602 371.488Z" fill="#263238"/>
<path d="M150.76 370.064C150.653 370.002 150.76 369.602 151.036 369.175C151.311 368.748 151.685 368.57 151.774 368.659C151.863 368.748 151.676 369.086 151.409 369.451C151.142 369.815 150.876 370.127 150.76 370.064Z" fill="#263238"/>
<path d="M151.632 370.563C151.516 370.563 151.569 370.064 151.845 369.593C152.121 369.122 152.468 368.837 152.566 368.908C152.663 368.979 152.494 369.38 152.245 369.798C151.996 370.216 151.756 370.607 151.632 370.563Z" fill="#263238"/>
<path d="M140.922 371.434C140.869 371.434 140.673 371.274 140.371 370.936C140.012 370.502 139.613 370.102 139.179 369.744C138.752 369.403 138.243 369.179 137.702 369.095C137.293 369.041 137.017 369.095 136.991 369.041C136.964 368.988 137.222 368.801 137.711 368.766C138.357 368.752 138.987 368.966 139.49 369.371C139.964 369.753 140.363 370.22 140.664 370.749C140.869 371.141 140.976 371.399 140.922 371.434Z" fill="#263238"/>
<path d="M150.805 368.632C150.867 368.739 150.636 369.006 150.244 369.148C149.853 369.291 149.506 369.237 149.488 369.148C149.47 369.059 149.746 368.873 150.084 368.748C150.422 368.624 150.733 368.526 150.805 368.632Z" fill="#263238"/>
<path d="M150.609 367.894C150.609 368.028 150.253 368.134 149.791 368.143C149.328 368.152 148.972 368.045 148.981 367.921C148.99 367.796 149.346 367.681 149.791 367.672C150.235 367.663 150.609 367.77 150.609 367.894Z" fill="#263238"/>
<path d="M200.759 142.666C200.403 142.301 199.522 142.479 199.522 142.479C199.61 141.967 199.61 141.443 199.522 140.931C199.362 140.433 198.241 140.531 198.241 140.531C198.19 140.111 198.19 139.687 198.241 139.268C198.25 139.175 198.23 139.081 198.184 139C198.138 138.919 198.068 138.854 197.983 138.814C197.453 138.598 196.883 138.495 196.311 138.512C195.626 138.022 198.401 134.135 199.433 132.89C200.465 131.645 200.278 130.675 199.362 130.675C198.73 130.675 195.493 134.411 194.496 135.665C193.5 136.92 190.858 140.406 190.77 137.622C190.681 134.838 189.56 132.739 188.857 132.383C188.154 132.027 187.407 132.863 187.79 133.637C188.126 134.516 188.335 135.439 188.412 136.377C188.509 137.124 188.476 137.882 188.315 138.618C188.02 139.988 187.618 141.332 187.114 142.639H187.043C187.043 142.639 167.634 161.256 166.228 162.581C164.974 163.773 139.748 161.167 134.687 160.633C132.967 160.382 131.231 160.263 129.492 160.278C127.295 160.375 126.904 160.687 124.716 160.713C119.19 160.775 113.677 161.26 108.225 162.163C105.756 162.583 103.45 163.673 101.558 165.313C99.6666 166.954 98.2619 169.083 97.4974 171.467C92.4006 187.389 80.855 225.077 78.818 246.247C77.2788 249.038 75.8893 251.909 74.6552 254.848C73.2232 258.744 73.5701 258.878 74.0504 258.967C75.349 259.207 76.8256 252.216 77.3771 253.906C77.9286 255.596 74.5752 262.24 75.9361 262.436C77.7151 262.685 79.1294 255.32 79.2984 254.733C79.4674 254.146 80.348 254.333 80.1879 254.884C79.9299 255.667 77.4304 263.966 79.1739 264.233C80.1345 264.375 80.2412 262.623 80.2412 262.623C80.2412 262.623 82.0202 254.679 82.8297 254.84C83.6391 255 82.7763 259.687 82.3671 261.253C81.958 262.818 82.5272 263.61 83.3634 263.227C83.9326 262.961 85.2936 258.202 85.6671 256.654C86.0407 255.106 86.9747 250.819 88.2289 253.301C89.4831 255.782 91.3866 257.223 92.1693 257.259C92.3457 257.239 92.512 257.166 92.6467 257.05C92.7814 256.935 92.8785 256.781 92.9254 256.61C92.9723 256.439 92.9668 256.258 92.9098 256.089C92.8527 255.921 92.7466 255.774 92.6052 255.667C91.9319 255.009 91.3541 254.261 90.8885 253.443C90.4735 252.806 90.1725 252.102 89.999 251.362C89.6405 249.886 89.4319 248.378 89.3763 246.861L89.234 245.971C91.2265 236.107 96.9637 207.154 105.245 188.661L108.643 195.653L110.119 200.83L101.064 223.182L139.686 222.675L133.922 200.492L140.922 177.365C148.492 177.534 167.927 177.818 171.165 176.351C175.239 174.572 196.311 147.958 196.311 147.958C197.685 146.891 199 145.751 200.252 144.542C200.252 144.542 201.532 143.466 200.759 142.666Z" fill="#FFBE9D"/>
<path d="M99.3653 206.665C100.486 202.84 106.241 183.929 106.241 183.929C106.241 183.929 109.07 199.344 108.322 201.203C107.635 202.795 106.823 204.329 105.894 205.793C99.3653 215.729 100.219 220.701 100.219 220.701L139.668 219.5C139.757 213.985 136.493 201.159 135.817 199.113C135.141 197.067 137.391 190.369 137.391 190.369C137.391 190.369 141.839 185.842 141.678 183.511C141.594 181.418 141.335 179.335 140.905 177.285L164.921 178.174L164.165 161.897L129.67 158.445C128.469 161.834 117.609 160.171 117.609 160.171C105.885 160.562 105.156 162.715 100.281 166.504C95.4071 170.293 87.3394 202.813 87.3394 202.813L99.3653 206.665Z" fill="#FF5555"/>
<path d="M122.688 202.813C122.004 202.935 121.308 202.971 120.615 202.92C119.326 202.92 117.555 202.831 115.607 202.635C113.66 202.44 111.898 202.164 110.644 201.915C109.953 201.826 109.275 201.653 108.625 201.399C109.32 201.399 110.014 201.465 110.698 201.595C111.961 201.755 113.713 201.977 115.652 202.173C117.591 202.368 119.352 202.502 120.624 202.591C121.318 202.6 122.009 202.674 122.688 202.813Z" fill="#263238"/>
<path d="M125.392 199.46C124.708 199.795 123.985 200.043 123.239 200.198C119.691 201.131 116.029 201.565 112.361 201.488C111.602 201.513 110.843 201.441 110.102 201.274C110.851 201.18 111.606 201.141 112.361 201.159C113.757 201.114 115.679 201.017 117.796 200.767C119.913 200.518 121.798 200.163 123.133 199.878C123.874 199.68 124.629 199.54 125.392 199.46Z" fill="#263238"/>
<path d="M138.663 184.499C138.645 185.177 138.553 185.851 138.387 186.509C138.156 187.745 137.8 189.435 137.347 191.285C136.893 193.136 136.457 194.843 136.066 196C135.909 196.662 135.676 197.303 135.372 197.912C135.422 197.236 135.547 196.568 135.746 195.92C136.084 194.532 136.466 192.931 136.893 191.179C137.32 189.426 137.729 187.825 138.067 186.438C138.188 185.77 138.388 185.119 138.663 184.499Z" fill="#263238"/>
<path d="M99.7834 204.396C97.7256 204.079 95.6947 203.606 93.7081 202.982C91.6782 202.508 89.6862 201.883 87.7485 201.114C89.8053 201.437 91.8358 201.91 93.8238 202.529C95.8542 203.002 97.8463 203.626 99.7834 204.396Z" fill="#263238"/>
<path d="M141.331 177.089C140.996 177.147 140.653 177.147 140.317 177.089C139.388 176.994 138.476 176.775 137.604 176.44C136.149 175.893 134.825 175.048 133.716 173.959C132.607 172.87 131.738 171.56 131.165 170.116C130.531 168.526 130.261 166.815 130.373 165.108C130.413 163.699 130.834 162.328 131.591 161.141C132.124 160.34 132.921 159.752 133.842 159.477C134.088 159.409 134.343 159.376 134.598 159.379C134.776 159.379 134.865 159.379 134.865 159.379C134.865 159.379 134.491 159.379 133.895 159.62C133.05 159.932 132.333 160.517 131.858 161.283C130.649 163.186 130.311 166.664 131.6 169.911C132.201 171.442 133.14 172.816 134.349 173.931C135.339 174.844 136.48 175.578 137.72 176.102C138.884 176.562 140.095 176.893 141.331 177.089Z" fill="#263238"/>
<path d="M162.066 177.854C161.843 175.126 161.772 172.388 161.852 169.653C161.783 166.92 161.866 164.185 162.101 161.461C162.324 164.185 162.395 166.92 162.315 169.653C162.39 172.389 162.306 175.127 162.066 177.854Z" fill="#263238"/>
<path d="M129.439 159.442C129.537 157.458 129.742 155.216 129.742 155.216C129.742 155.216 134.652 154.674 134.945 149.604C135.239 144.534 134.945 132.837 134.945 132.837L126.05 128.283L116.177 136.048L117.698 161.398L126.753 161.977C127.445 161.996 128.116 161.74 128.62 161.264C129.124 160.789 129.418 160.134 129.439 159.442Z" fill="#FFBE9D"/>
<path d="M130.32 145.592C130.32 145.592 130.32 145.69 130.24 145.806C130.173 145.889 130.088 145.956 129.99 145.999C129.892 146.043 129.786 146.062 129.679 146.055C129.11 146.055 128.558 145.396 128.363 144.631C128.27 144.261 128.27 143.873 128.363 143.502C128.381 143.34 128.439 143.185 128.533 143.052C128.626 142.918 128.751 142.81 128.896 142.737C129.016 142.687 129.15 142.687 129.27 142.737C129.359 142.781 129.431 142.853 129.475 142.941C129.537 143.093 129.475 143.19 129.475 143.182C129.475 143.173 129.475 143.093 129.386 143.004C129.339 142.94 129.271 142.896 129.194 142.879C129.116 142.863 129.036 142.875 128.968 142.915C128.858 142.981 128.768 143.073 128.704 143.184C128.64 143.294 128.605 143.419 128.603 143.546C128.528 143.877 128.528 144.22 128.603 144.551C128.781 145.245 129.261 145.806 129.688 145.859C129.772 145.87 129.857 145.864 129.938 145.841C130.019 145.818 130.094 145.779 130.159 145.725C130.266 145.654 130.302 145.583 130.32 145.592Z" fill="#EB996E"/>
<path d="M137.996 130.097C137.311 127.767 134.829 126.61 132.57 125.97C129.128 124.991 125.41 124.565 122.047 125.801C118.685 127.037 114.647 129.208 114.647 132.917C112.663 132.757 111.525 134.491 110.742 136.644C110.241 137.955 109.941 139.335 109.852 140.736C109.603 145.592 108.242 152.299 105.094 155.857C103.315 157.84 100.851 159.21 99.8366 161.683C98.9471 163.827 99.4097 166.371 98.5824 168.541C97.8442 170.453 96.2164 171.814 95.0245 173.478C93.8102 175.365 93.0955 177.529 92.9477 179.768C92.7999 182.007 93.2237 184.247 94.1794 186.278C95.142 188.256 96.4973 190.017 98.1626 191.455C99.8279 192.892 101.768 193.975 103.866 194.639C108.021 195.903 112.452 195.946 116.63 194.763C119.766 194.013 122.692 192.563 125.187 190.52C127.74 188.435 129.494 185.532 130.151 182.302C130.782 178.672 129.768 174.981 129.012 171.37C126.646 159.957 127.322 159.361 130.311 148.768C130.382 148.581 130.417 148.385 130.471 148.198C130.524 148.012 130.551 147.923 130.586 147.78C130.671 147.362 130.716 146.936 130.72 146.508C130.283 146.671 129.809 146.705 129.354 146.607C128.899 146.51 128.481 146.284 128.149 145.957C127.817 145.608 127.585 145.176 127.479 144.706C127.372 144.236 127.395 143.746 127.544 143.288C127.754 142.787 128.067 142.336 128.462 141.964C128.858 141.592 129.327 141.306 129.839 141.127C130.827 140.718 131.885 140.504 132.855 140.051C134.909 139.072 136.332 137.044 137.302 134.918C138.099 133.445 138.345 131.736 137.996 130.097Z" fill="#263238"/>
<path d="M130.675 145.832C130.863 146.11 131.019 146.409 131.138 146.722C131.405 147.282 131.761 148.074 132.152 148.99L132.223 149.159H132.036L131.147 149.239C130.533 149.239 130.017 149.355 129.412 149.346C129.36 149.334 129.311 149.309 129.27 149.273C129.23 149.238 129.199 149.192 129.181 149.141C129.155 149.06 129.155 148.973 129.181 148.892C129.202 148.772 129.228 148.654 129.261 148.536L129.421 147.905C129.502 147.484 129.627 147.072 129.795 146.677C129.778 147.107 129.716 147.533 129.608 147.949L129.483 148.581C129.439 148.794 129.359 149.124 129.483 149.097C129.928 149.097 130.56 148.999 131.147 148.963L132.036 148.883L131.921 149.079C131.538 148.19 131.218 147.353 131.031 146.775C130.867 146.48 130.747 146.162 130.675 145.832Z" fill="#FF5555"/>
<path d="M100.219 220.701L139.668 219.5L156.835 286.514L153.677 363.384H132.819L135.372 288.151L120.117 241.497L122.465 366.364L101.384 366.675L99.1693 249.307C99.0715 246.042 98.0041 238.686 98.4044 235.449L100.219 220.701Z" fill="#263238"/>
<path d="M125.365 242.449C124.719 242.49 124.071 242.451 123.435 242.333C122.243 242.191 120.615 241.942 118.827 241.586C117.039 241.23 115.438 240.821 114.282 240.492C113.664 240.356 113.066 240.141 112.503 239.852C112.503 239.718 115.403 240.412 118.961 241.133C122.519 241.853 125.383 242.316 125.365 242.449Z" fill="#455A64"/>
<path d="M153.464 359.168C153.464 359.293 148.741 359.399 142.915 359.399C137.089 359.399 132.356 359.293 132.356 359.168C132.356 359.044 137.08 358.937 142.915 358.937C148.75 358.937 153.464 359.035 153.464 359.168Z" fill="#455A64"/>
<path d="M122.278 363.118C122.278 363.251 117.689 363.349 112.032 363.349C106.374 363.349 101.793 363.251 101.793 363.118C101.793 362.984 106.383 362.886 112.032 362.886C117.68 362.886 122.278 362.993 122.278 363.118Z" fill="#455A64"/>
<path d="M119.557 362.797C119.432 362.797 118.881 335.517 118.32 301.867C117.76 268.218 117.431 240.919 117.546 240.919C117.662 240.919 118.231 268.191 118.783 301.858C119.334 335.525 119.69 362.797 119.557 362.797Z" fill="#455A64"/>
<path d="M150.662 359.168C150.653 359.047 150.653 358.925 150.662 358.803V357.736C150.662 356.775 150.734 355.397 150.787 353.644C150.911 350.086 151.089 344.919 151.312 338.585C151.792 325.848 152.468 308.289 153.206 288.907C153.206 288.72 153.206 288.542 153.206 288.382V288.445C148.537 269.765 144.311 252.812 141.243 240.545L137.685 226.038C137.276 224.339 136.964 223.014 136.742 222.089C136.635 221.653 136.564 221.315 136.502 221.057C136.467 220.941 136.446 220.822 136.439 220.701C136.486 220.813 136.521 220.929 136.546 221.048C136.617 221.297 136.706 221.635 136.831 222.062C137.071 222.951 137.418 224.303 137.863 225.993C138.752 229.427 140.006 234.372 141.572 240.465C144.667 252.723 148.937 269.632 153.669 288.338V288.4C153.669 288.56 153.669 288.747 153.669 288.925C152.877 308.307 152.157 325.857 151.632 338.594C151.356 344.936 151.125 350.069 150.965 353.644C150.876 355.423 150.805 356.775 150.76 357.736C150.76 358.19 150.707 358.546 150.698 358.803C150.699 358.926 150.687 359.048 150.662 359.168Z" fill="#455A64"/>
<path d="M143.858 286.817C142.36 287.309 140.816 287.652 139.25 287.84C137.329 288.169 135.692 288.4 134.954 288.436V288.258C135.194 288.329 135.319 288.373 135.319 288.409C135.319 288.445 135.168 288.409 134.918 288.409H134.385L134.918 288.249C135.612 288.044 137.249 287.706 139.17 287.359C140.711 287.025 142.281 286.843 143.858 286.817Z" fill="#455A64"/>
<path d="M143.493 289.37C142.105 289.433 140.715 289.371 139.339 289.183C137.949 289.154 136.565 289.003 135.203 288.729C137.982 288.502 140.781 288.719 143.493 289.37Z" fill="#455A64"/>
<path opacity="0.2" d="M100.05 222.115C100.517 222.715 101.106 223.21 101.777 223.567C102.449 223.924 103.188 224.135 103.946 224.188C105.535 224.376 107.142 224.346 108.723 224.099C118.908 222.969 129.697 221.928 139.668 219.5C126.762 220.22 113.126 219.98 100.219 220.701L100.086 221.804" fill="black"/>
<g opacity="0.2">
<path opacity="0.2" d="M113.348 240.305L120.624 268.538L120.117 241.497L113.348 240.305Z" fill="black"/>
</g>
</svg>
